<svg width="37" height="36" viewBox="0 0 37 36" fill="none" xmlns="http://www.w3.org/2000/svg">
<path d="M36.3398 18C36.3398 22.7738 34.4433 27.3524 31.0679 30.728C27.6922 34.1035 23.1137 36 18.3398 36C13.566 36 8.98758 34.1035 5.61193 30.728C2.23627 27.3524 0.339844 22.7738 0.339844 18C0.339844 13.2261 2.23627 8.64774 5.61193 5.27209C8.98758 1.89642 13.566 0 18.3398 0C23.1137 0 27.6922 1.89642 31.0679 5.27209C34.4433 8.64774 36.3398 13.2261 36.3398 18Z" fill="url(#paint0_linear_5_485)"/>
<path d="M13.0368 24.498C12.6813 28.6492 14.6703 31.5 18.3401 31.5C22.0076 31.5 23.9988 28.6492 23.6433 24.498C23.2901 20.3445 21.1346 18 18.3401 18C15.5456 18 13.3901 20.3445 13.0368 24.498Z" fill="url(#paint1_linear_5_485)"/>
<path d="M8.21484 12.375C8.21484 10.512 9.47259 9 11.0273 9C12.5821 9 13.8398 10.512 13.8398 12.375C13.8398 14.2403 12.5821 15.75 11.0273 15.75C9.47259 15.75 8.21484 14.2403 8.21484 12.375ZM22.8398 12.375C22.8398 10.512 24.0998 9 25.6523 9C27.2071 9 28.4648 10.512 28.4648 12.375C28.4648 14.2403 27.2071 15.75 25.6523 15.75C24.0998 15.75 22.8398 14.2403 22.8398 12.375Z" fill="url(#paint2_linear_5_485)"/>
<g filter="url(#filter0_i_5_485)">
<path d="M8.21484 12.375C8.21484 10.512 9.47259 9 11.0273 9C12.5821 9 13.8398 10.512 13.8398 12.375C13.8398 14.2403 12.5821 15.75 11.0273 15.75C9.47259 15.75 8.21484 14.2403 8.21484 12.375ZM22.8398 12.375C22.8398 10.512 24.0998 9 25.6523 9C27.2071 9 28.4648 10.512 28.4648 12.375C28.4648 14.2403 27.2071 15.75 25.6523 15.75C24.0998 15.75 22.8398 14.2403 22.8398 12.375Z" fill="#222222"/>
</g>
<path d="M10.4246 10.2769C10.8431 10.3714 11.0771 10.8439 10.9466 11.3321C10.8183 11.8226 10.3751 12.1421 9.95659 12.0476C9.53809 11.9531 9.30409 11.4806 9.43459 10.9901C9.56284 10.5041 10.0061 10.1801 10.4246 10.2769ZM25.4052 10.4186C25.8687 10.5244 26.1297 11.0486 25.9857 11.5886C25.8417 12.1354 25.3512 12.4886 24.8854 12.3851C24.4219 12.2816 24.1609 11.7551 24.3049 11.2129C24.4467 10.6684 24.9394 10.3129 25.4074 10.4186H25.4052Z" fill="#4E506A"/>
<g filter="url(#filter1_d_5_485)">
<path d="M25.2414 3.81537C25.3584 3.80412 25.4753 3.79962 25.5946 3.79962C26.6903 3.79962 27.8221 4.25862 28.6816 5.06412C28.8366 5.21185 28.9284 5.41392 28.9377 5.62788C28.9469 5.84185 28.8728 6.05108 28.7311 6.21162C28.6627 6.29034 28.5788 6.35442 28.4849 6.39996C28.3911 6.4455 28.289 6.47158 28.1846 6.47662C28.0804 6.48166 27.9762 6.46557 27.8783 6.4293C27.7805 6.39306 27.6909 6.33737 27.6151 6.26562C26.9963 5.68287 26.1391 5.36562 25.3831 5.43537C25.121 5.45499 24.8661 5.53185 24.6368 5.6605C24.4075 5.78918 24.209 5.96655 24.0556 6.18012C23.9939 6.26382 23.9161 6.33433 23.8268 6.3875C23.7374 6.44067 23.6384 6.47541 23.5356 6.48967C23.4326 6.50391 23.3277 6.49741 23.2274 6.47052C23.127 6.44364 23.033 6.39693 22.9509 6.33312C22.7828 6.1996 22.6731 6.00601 22.645 5.79321C22.6168 5.58038 22.6725 5.36496 22.8001 5.19237C23.0836 4.80028 23.4486 4.47419 23.87 4.2365C24.2914 3.99881 24.7592 3.85515 25.2414 3.81537ZM7.99512 5.06412C8.82936 4.27074 9.93105 3.81946 11.0821 3.79962C11.6259 3.78783 12.1645 3.90843 12.6513 4.15107C13.1381 4.39368 13.5586 4.75105 13.8766 5.19237C14.004 5.36487 14.0596 5.57997 14.032 5.79262C14.0043 6.00527 13.8954 6.19895 13.7281 6.33312C13.6459 6.39697 13.5517 6.44375 13.4511 6.47066C13.3505 6.49757 13.2455 6.50409 13.1424 6.48983C13.0392 6.47559 12.94 6.44085 12.8505 6.38763C12.7609 6.33444 12.683 6.26388 12.6211 6.18012C12.4676 5.96664 12.2692 5.78936 12.0399 5.6607C11.8105 5.53205 11.5558 5.45514 11.2936 5.43537C10.5399 5.36562 9.68037 5.68287 9.06162 6.26562C8.98582 6.33737 8.89629 6.39306 8.79842 6.4293C8.70054 6.46557 8.59635 6.48166 8.4921 6.47662C8.38786 6.47158 8.28569 6.4455 8.19177 6.39996C8.09786 6.35442 8.01414 6.29034 7.94562 6.21162C7.80387 6.05108 7.72983 5.84185 7.73905 5.62788C7.7483 5.41392 7.84007 5.21185 7.99512 5.06412Z" fill="#222222"/>
</g>
<path d="M25.2414 3.81537C25.3584 3.80412 25.4753 3.79962 25.5946 3.79962C26.6903 3.79962 27.8221 4.25862 28.6816 5.06412C28.8366 5.21185 28.9284 5.41392 28.9377 5.62788C28.9469 5.84185 28.8728 6.05108 28.7311 6.21162C28.6627 6.29034 28.5788 6.35442 28.4849 6.39996C28.3911 6.4455 28.289 6.47158 28.1846 6.47662C28.0804 6.48166 27.9762 6.46557 27.8783 6.4293C27.7805 6.39306 27.6909 6.33737 27.6151 6.26562C26.9963 5.68287 26.1391 5.36562 25.3831 5.43537C25.121 5.45499 24.8661 5.53185 24.6368 5.6605C24.4075 5.78918 24.209 5.96655 24.0556 6.18012C23.9939 6.26382 23.9161 6.33433 23.8268 6.3875C23.7374 6.44067 23.6384 6.47541 23.5356 6.48967C23.4326 6.50391 23.3277 6.49741 23.2274 6.47052C23.127 6.44364 23.033 6.39693 22.9509 6.33312C22.7828 6.1996 22.6731 6.00601 22.645 5.79321C22.6168 5.58038 22.6725 5.36496 22.8001 5.19237C23.0836 4.80028 23.4486 4.47419 23.87 4.2365C24.2914 3.99881 24.7592 3.85515 25.2414 3.81537ZM7.99512 5.06412C8.82936 4.27074 9.93105 3.81946 11.0821 3.79962C11.6259 3.78783 12.1645 3.90843 12.6513 4.15107C13.1381 4.39368 13.5586 4.75105 13.8766 5.19237C14.004 5.36487 14.0596 5.57997 14.032 5.79262C14.0043 6.00527 13.8954 6.19895 13.7281 6.33312C13.6459 6.39697 13.5517 6.44375 13.4511 6.47066C13.3505 6.49757 13.2455 6.50409 13.1424 6.48983C13.0392 6.47559 12.94 6.44085 12.8505 6.38763C12.7609 6.33444 12.683 6.26388 12.6211 6.18012C12.4676 5.96664 12.2692 5.78936 12.0399 5.6607C11.8105 5.53205 11.5558 5.45514 11.2936 5.43537C10.5399 5.36562 9.68037 5.68287 9.06162 6.26562C8.98582 6.33737 8.89629 6.39306 8.79842 6.4293C8.70054 6.46557 8.59635 6.48166 8.4921 6.47662C8.38786 6.47158 8.28569 6.4455 8.19177 6.39996C8.09786 6.35442 8.01414 6.29034 7.94562 6.21162C7.80387 6.05108 7.72983 5.84185 7.73905 5.62788C7.7483 5.41392 7.84007 5.21185 7.99512 5.06412Z" fill="url(#paint3_linear_5_485)"/>
<defs>
<filter id="filter0_i_5_485" x="8.21484" y="9" width="20.25" height="6.75" filterUnits="userSpaceOnUse" color-interpolation-filters="sRGB">
<feFlood flood-opacity="0" result="BackgroundImageFix"/>
<feBlend mode="normal" in="SourceGraphic" in2="BackgroundImageFix" result="shape"/>
<feColorMatrix in="SourceAlpha" type="matrix" values="0 0 0 0 0 0 0 0 0 0 0 0 0 0 0 0 0 0 127 0" result="hardAlpha"/>
<feOffset/>
<feGaussianBlur stdDeviation="0.5"/>
<feComposite in2="hardAlpha" operator="arithmetic" k2="-1" k3="1"/>
<feColorMatrix type="matrix" values="0 0 0 0 0.0980392 0 0 0 0 0.101961 0 0 0 0 0.2 0 0 0 0.819684 0"/>
<feBlend mode="normal" in2="shape" result="effect1_innerShadow_5_485"/>
</filter>
<filter id="filter1_d_5_485" x="4.73828" y="1.79883" width="27.2001" height="8.69824" filterUnits="userSpaceOnUse" color-interpolation-filters="sRGB">
<feFlood flood-opacity="0" result="BackgroundImageFix"/>
<feColorMatrix in="SourceAlpha" type="matrix" values="0 0 0 0 0 0 0 0 0 0 0 0 0 0 0 0 0 0 127 0" result="hardAlpha"/>
<feOffset dy="1"/>
<feGaussianBlur stdDeviation="1.5"/>
<feColorMatrix type="matrix" values="0 0 0 0 0.803922 0 0 0 0 0.388235 0 0 0 0 0.00392157 0 0 0 0.145679 0"/>
<feBlend mode="normal" in2="BackgroundImageFix" result="effect1_dropShadow_5_485"/>
<feBlend mode="normal" in="SourceGraphic" in2="effect1_dropShadow_5_485" result="shape"/>
</filter>
<linearGradient id="paint0_linear_5_485" x1="18.3398" y1="3.69" x2="18.3398" y2="36" gradientUnits="userSpaceOnUse">
<stop stop-color="#FEEA70"/>
<stop offset="1" stop-color="#F69B30"/>
</linearGradient>
<linearGradient id="paint1_linear_5_485" x1="18.3398" y1="18" x2="18.3398" y2="31.5" gradientUnits="userSpaceOnUse">
<stop stop-color="#472315"/>
<stop offset="1" stop-color="#8B3A0E"/>
</linearGradient>
<linearGradient id="paint2_linear_5_485" x1="18.3398" y1="9" x2="18.3398" y2="15.75" gradientUnits="userSpaceOnUse">
<stop stop-color="#191A33"/>
<stop offset="0.872" stop-color="#3B426A"/>
</linearGradient>
<linearGradient id="paint3_linear_5_485" x1="18.3379" y1="3.79775" x2="18.3379" y2="6.49775" gradientUnits="userSpaceOnUse">
<stop stop-color="#E78E0D"/>
<stop offset="1" stop-color="#CB6000"/>
</linearGradient>
</defs>
</svg>
