<svg width="37" height="36" viewBox="0 0 37 36" fill="none" xmlns="http://www.w3.org/2000/svg">
<path d="M18.3398 0C13.566 0 8.98758 1.89642 5.61193 5.27209C2.23627 8.64774 0.339844 13.2261 0.339844 18C0.339844 22.7738 2.23627 27.3524 5.61193 30.728C8.98758 34.1035 13.566 36 18.3398 36C23.1137 36 27.6922 34.1035 31.0679 30.728C34.4433 27.3524 36.3398 22.7738 36.3398 18C36.3398 13.2261 34.4433 8.64774 31.0679 5.27209C27.6922 1.89642 23.1137 0 18.3398 0Z" fill="url(#paint0_linear_5_493)"/>
<path d="M23.9063 9C18.9608 9 18.3421 13.104 18.3421 13.104C18.3421 13.104 17.7256 9 12.7801 9C8.02358 9 6.63758 13.9995 7.21808 16.6725C8.74808 23.7375 18.3421 28.6875 18.3421 28.6875C18.3421 28.6875 27.9383 23.7375 29.4683 16.6725C30.0465 13.9995 28.6583 9 23.9063 9Z" fill="white"/>
<defs>
<linearGradient id="paint0_linear_5_493" x1="18.3398" y1="0" x2="18.3398" y2="36" gradientUnits="userSpaceOnUse">
<stop stop-color="#FF6680"/>
<stop offset="1" stop-color="#E61739"/>
</linearGradient>
</defs>
</svg>
