<svg width="37" height="36" viewBox="0 0 37 36" fill="none" xmlns="http://www.w3.org/2000/svg">
<path d="M36.3398 18C36.3398 22.7738 34.4433 27.3524 31.0679 30.728C27.6922 34.1035 23.1137 36 18.3398 36C13.566 36 8.98758 34.1035 5.61193 30.728C2.23627 27.3524 0.339844 22.7738 0.339844 18C0.339844 13.2261 2.23627 8.64774 5.61193 5.27209C8.98758 1.89642 13.566 0 18.3398 0C23.1137 0 27.6922 1.89642 31.0679 5.27209C34.4433 8.64774 36.3398 13.2261 36.3398 18Z" fill="url(#paint0_linear_5_476)"/>
<g filter="url(#filter0_d_5_476)">
<path d="M12.0391 30.4897C12.0391 31.6777 14.8583 31.4887 18.3391 31.4887C21.8176 31.4887 24.6391 31.6777 24.6391 30.4897C24.6391 29.0587 21.8176 28.125 18.3391 28.125C14.8583 28.125 12.0391 29.0587 12.0391 30.4897Z" fill="#222222"/>
</g>
<path d="M12.0391 30.4897C12.0391 31.6777 14.8583 31.4887 18.3391 31.4887C21.8176 31.4887 24.6391 31.6777 24.6391 30.4897C24.6391 29.0587 21.8176 28.125 18.3391 28.125C14.8583 28.125 12.0391 29.0587 12.0391 30.4897Z" fill="url(#paint1_linear_5_476)"/>
<path d="M8.43767 22.1201C8.43767 20.3404 9.64819 18.9004 11.1377 18.9004C12.6294 18.9004 13.8377 20.3404 13.8377 22.1201C13.8377 22.8604 13.6284 23.5444 13.2707 24.0867C13.1035 24.3364 12.8478 24.5133 12.5552 24.5817C12.2177 24.6627 11.7159 24.7504 11.1377 24.7504C10.5594 24.7504 10.0554 24.6627 9.72019 24.5817C9.42729 24.5139 9.17135 24.3369 9.00467 24.0867C8.62797 23.5005 8.4309 22.817 8.43767 22.1201ZM22.8377 22.1201C22.8377 20.3404 24.046 18.9004 25.5377 18.9004C27.0272 18.9004 28.2377 20.3404 28.2377 22.1201C28.2377 22.8604 28.0262 23.5444 27.6707 24.0867C27.504 24.3369 27.2482 24.5139 26.9552 24.5817C26.4908 24.6928 26.0152 24.7493 25.5377 24.7504C24.9595 24.7504 24.4577 24.6627 24.1202 24.5817C23.827 24.5133 23.5705 24.3364 23.4025 24.0867C23.0274 23.4999 22.8313 22.8165 22.8377 22.1201Z" fill="url(#paint2_linear_5_476)"/>
<g filter="url(#filter1_i_5_476)">
<path d="M8.43767 22.1201C8.43767 20.3404 9.64819 18.9004 11.1377 18.9004C12.6294 18.9004 13.8377 20.3404 13.8377 22.1201C13.8377 22.8604 13.6284 23.5444 13.2707 24.0867C13.1035 24.3364 12.8478 24.5133 12.5552 24.5817C12.2177 24.6627 11.7159 24.7504 11.1377 24.7504C10.5594 24.7504 10.0554 24.6627 9.72019 24.5817C9.42729 24.5139 9.17135 24.3369 9.00467 24.0867C8.62797 23.5005 8.4309 22.817 8.43767 22.1201ZM22.8377 22.1201C22.8377 20.3404 24.046 18.9004 25.5377 18.9004C27.0272 18.9004 28.2377 20.3404 28.2377 22.1201C28.2377 22.8604 28.0262 23.5444 27.6707 24.0867C27.504 24.3369 27.2482 24.5139 26.9552 24.5817C26.4908 24.6928 26.0152 24.7493 25.5377 24.7504C24.9595 24.7504 24.4577 24.6627 24.1202 24.5817C23.827 24.5133 23.5705 24.3364 23.4025 24.0867C23.0274 23.4999 22.8313 22.8165 22.8377 22.1201Z" fill="#222222"/>
</g>
<path d="M11.5206 20.9977C11.5317 21.0502 11.5369 21.1037 11.5364 21.1574C11.5364 21.6097 11.1404 21.9809 10.6499 21.9809C10.1616 21.9809 9.76562 21.6097 9.76562 21.1574C9.76562 20.9707 9.83312 20.7974 9.94562 20.6602C10.4496 20.7794 10.9784 20.8942 11.5206 20.9977ZM24.8542 21.9809C24.3794 21.9809 23.9924 21.6367 23.9699 21.1979C24.5527 21.1124 25.1309 21.0067 25.6934 20.8919C25.7245 20.9777 25.7398 21.0684 25.7384 21.1597C25.7384 21.6097 25.3447 21.9809 24.8542 21.9809Z" fill="#4F4F67"/>
<g filter="url(#filter2_d_5_476)">
<path d="M20.5889 17.1C20.5889 16.0965 20.9557 15.75 21.5902 15.75C22.2202 15.75 22.5217 16.371 22.7287 18.1485C25.2667 18.1485 29.5642 16.947 29.9782 16.947C30.3787 16.947 30.6014 17.1382 30.6914 17.5477C30.7702 17.9032 30.6397 18.2408 30.1942 18.4478C28.7969 19.0935 24.6974 20.5515 21.2302 20.5515C20.8522 20.5515 20.5889 20.358 20.5889 19.8743V17.1ZM13.9492 18.1485C14.1562 16.371 14.4577 15.75 15.0877 15.75C15.7222 15.75 16.0889 16.0965 16.0889 17.1V19.8743C16.0889 20.358 15.8257 20.5515 15.4477 20.5515C11.9804 20.5515 7.88091 19.0935 6.48366 18.4478C6.03816 18.2408 5.90766 17.9032 5.98641 17.5477C6.07866 17.1382 6.30141 16.947 6.69966 16.947C7.11366 16.947 11.4112 18.1485 13.9492 18.1485Z" fill="#222222"/>
</g>
<path d="M20.5889 17.1C20.5889 16.0965 20.9557 15.75 21.5902 15.75C22.2202 15.75 22.5217 16.371 22.7287 18.1485C25.2667 18.1485 29.5642 16.947 29.9782 16.947C30.3787 16.947 30.6014 17.1382 30.6914 17.5477C30.7702 17.9032 30.6397 18.2408 30.1942 18.4478C28.7969 19.0935 24.6974 20.5515 21.2302 20.5515C20.8522 20.5515 20.5889 20.358 20.5889 19.8743V17.1ZM13.9492 18.1485C14.1562 16.371 14.4577 15.75 15.0877 15.75C15.7222 15.75 16.0889 16.0965 16.0889 17.1V19.8743C16.0889 20.358 15.8257 20.5515 15.4477 20.5515C11.9804 20.5515 7.88091 19.0935 6.48366 18.4478C6.03816 18.2408 5.90766 17.9032 5.98641 17.5477C6.07866 17.1382 6.30141 16.947 6.69966 16.947C7.11366 16.947 11.4112 18.1485 13.9492 18.1485Z" fill="url(#paint3_linear_5_476)"/>
<defs>
<filter id="filter0_d_5_476" x="11.0391" y="28.125" width="14.6" height="5.37476" filterUnits="userSpaceOnUse" color-interpolation-filters="sRGB">
<feFlood flood-opacity="0" result="BackgroundImageFix"/>
<feColorMatrix in="SourceAlpha" type="matrix" values="0 0 0 0 0 0 0 0 0 0 0 0 0 0 0 0 0 0 127 0" result="hardAlpha"/>
<feOffset dy="1"/>
<feGaussianBlur stdDeviation="0.5"/>
<feColorMatrix type="matrix" values="0 0 0 0 1 0 0 0 0 0.509681 0 0 0 0 0 0 0 0 0.371207 0"/>
<feBlend mode="normal" in2="BackgroundImageFix" result="effect1_dropShadow_5_476"/>
<feBlend mode="normal" in="SourceGraphic" in2="effect1_dropShadow_5_476" result="shape"/>
</filter>
<filter id="filter1_i_5_476" x="8.4375" y="18.9004" width="19.8002" height="5.8501" filterUnits="userSpaceOnUse" color-interpolation-filters="sRGB">
<feFlood flood-opacity="0" result="BackgroundImageFix"/>
<feBlend mode="normal" in="SourceGraphic" in2="BackgroundImageFix" result="shape"/>
<feColorMatrix in="SourceAlpha" type="matrix" values="0 0 0 0 0 0 0 0 0 0 0 0 0 0 0 0 0 0 127 0" result="hardAlpha"/>
<feOffset/>
<feGaussianBlur stdDeviation="0.5"/>
<feComposite in2="hardAlpha" operator="arithmetic" k2="-1" k3="1"/>
<feColorMatrix type="matrix" values="0 0 0 0 0.0387428 0 0 0 0 0.0406183 0 0 0 0 0.0875053 0 0 0 1 0"/>
<feBlend mode="normal" in2="shape" result="effect1_innerShadow_5_476"/>
</filter>
<filter id="filter2_d_5_476" x="5.86484" y="15.75" width="24.9482" height="5.50151" filterUnits="userSpaceOnUse" color-interpolation-filters="sRGB">
<feFlood flood-opacity="0" result="BackgroundImageFix"/>
<feColorMatrix in="SourceAlpha" type="matrix" values="0 0 0 0 0 0 0 0 0 0 0 0 0 0 0 0 0 0 127 0" result="hardAlpha"/>
<feOffset dy="0.6"/>
<feGaussianBlur stdDeviation="0.05"/>
<feColorMatrix type="matrix" values="0 0 0 0 0.565875 0 0 0 0 0.151272 0 0 0 0 0 0 0 0 0.15024 0"/>
<feBlend mode="normal" in2="BackgroundImageFix" result="effect1_dropShadow_5_476"/>
<feBlend mode="normal" in="SourceGraphic" in2="effect1_dropShadow_5_476" result="shape"/>
</filter>
<linearGradient id="paint0_linear_5_476" x1="18.3398" y1="0" x2="18.3398" y2="24.1897" gradientUnits="userSpaceOnUse">
<stop stop-color="#E04300"/>
<stop offset="1" stop-color="#FFA320"/>
</linearGradient>
<linearGradient id="paint1_linear_5_476" x1="18.3386" y1="28.5817" x2="18.3386" y2="31.5" gradientUnits="userSpaceOnUse">
<stop stop-color="#3D0D00"/>
<stop offset="1" stop-color="#661C04"/>
</linearGradient>
<linearGradient id="paint2_linear_5_476" x1="18.3384" y1="18.8995" x2="18.3384" y2="24.7495" gradientUnits="userSpaceOnUse">
<stop stop-color="#191A33"/>
<stop offset="0.872" stop-color="#3B426A"/>
</linearGradient>
<linearGradient id="paint3_linear_5_476" x1="26.4736" y1="20.9992" x2="26.4736" y2="15.75" gradientUnits="userSpaceOnUse">
<stop stop-color="#9A2F00"/>
<stop offset="1" stop-color="#D44800"/>
</linearGradient>
</defs>
</svg>
